<svg xmlns="http://www.w3.org/2000/svg" width="11" height="31.054" viewBox="0 0 11 31.054">
  <path id="icon" d="M5.5,31.054a5.411,5.411,0,0,1-5.5-5.3V7.936a.757.757,0,0,1,.77-.743.757.757,0,0,1,.77.743V25.749A3.9,3.9,0,0,0,5.5,29.568a3.9,3.9,0,0,0,3.96-3.819V4.073A2.639,2.639,0,0,0,6.777,1.486,2.639,2.639,0,0,0,4.1,4.073V20.783a1.406,1.406,0,0,0,2.81,0V7.936a.771.771,0,0,1,1.54,0V20.783A2.9,2.9,0,0,1,5.5,23.624a2.9,2.9,0,0,1-2.945-2.841V4.073A4.154,4.154,0,0,1,6.777,0,4.154,4.154,0,0,1,11,4.073V25.749a5.411,5.411,0,0,1-5.5,5.3" fill="#fff"/>
</svg>
