<svg xmlns="http://www.w3.org/2000/svg" width="23.201" height="23.201" viewBox="0 0 23.201 23.201">
  <g id="Group_10978" data-name="Group 10978" transform="translate(-542.671 -508.549)">
    <g id="Group_10974" data-name="Group 10974" transform="translate(558.302 508.549)">
      <g id="Group_10972" data-name="Group 10972" transform="translate(0.018 0.012)">
        <path id="Path_16395" data-name="Path 16395" d="M1162.108,509.211l-2.487,2.487,4.879,4.879,2.487-2.487a.592.592,0,0,0,0-.837l-4.042-4.042A.592.592,0,0,0,1162.108,509.211Z" transform="translate(-1159.621 -509.037)" fill="#fff"/>
      </g>
      <g id="Group_10973" data-name="Group 10973">
        <path id="Path_16396" data-name="Path 16396" d="M1163.811,516.118l-4.9-4.9,2.5-2.5a.605.605,0,0,1,.855,0l4.042,4.042a.605.605,0,0,1,0,.855Zm-4.861-4.9,4.861,4.861,2.478-2.478a.58.58,0,0,0,0-.819l-4.042-4.042a.58.58,0,0,0-.819,0Z" transform="translate(-1158.914 -508.549)" fill="#fff"/>
      </g>
    </g>
    <g id="Group_10977" data-name="Group 10977" transform="translate(542.671 511.885)">
      <g id="Group_10975" data-name="Group 10975" transform="translate(0.013 0.018)">
        <path id="Path_16397" data-name="Path 16397" d="M558.126,640.794l-11.6,11.6-3.327,7.829a.287.287,0,0,0,.377.377l7.829-3.327,11.6-11.6Zm-11.873,17.785-1.034-1.034,1.661-3.907,3.28,3.28Z" transform="translate(-543.171 -640.794)" fill="#fff"/>
      </g>
      <g id="Group_10976" data-name="Group 10976" transform="translate(0)">
        <path id="Path_16398" data-name="Path 16398" d="M542.759,659.862a.3.3,0,0,1-.064-.33l3.328-7.831,11.614-11.614,4.9,4.9L550.918,656.6l-7.829,3.328A.3.3,0,0,1,542.759,659.862Zm3.286-8.146-3.326,7.827a.275.275,0,0,0,.36.36l7.827-3.327L562.5,644.983l-4.861-4.861Zm-.283,6.189-1.046-1.046,0-.008,1.668-3.925,3.307,3.307Zm-1.016-1.052,1.021,1.021,3.882-1.65-3.254-3.254Z" transform="translate(-542.671 -640.087)" fill="#fff"/>
      </g>
    </g>
  </g>
</svg>
