<svg xmlns="http://www.w3.org/2000/svg" width="24" height="24" viewBox="0 0 24 24">
  <g id="global_1_" data-name="global (1)" transform="translate(9)">
    <g id="Group_2" data-name="Group 2" transform="translate(-9)">
      <path class="nav-icon" data-name="Path 2" d="M20.485,3.515A12,12,0,0,0,3.515,20.485,12,12,0,0,0,20.485,3.515ZM9.724,1.653a15.356,15.356,0,0,0-1.273,1.4,14.591,14.591,0,0,0-1.87,3.013H3.227A10.622,10.622,0,0,1,9.724,1.653Zm-7.3,5.821h3.6a14.109,14.109,0,0,0-.71,3.823H1.43A10.515,10.515,0,0,1,2.423,7.474ZM1.43,12.7H5.314a14.107,14.107,0,0,0,.71,3.823h-3.6A10.515,10.515,0,0,1,1.43,12.7Zm1.8,5.229H6.582a14.592,14.592,0,0,0,1.87,3.013,15.342,15.342,0,0,0,1.273,1.4A10.622,10.622,0,0,1,3.227,17.932Zm8.07,3.949a13.823,13.823,0,0,1-1.748-1.815,13.394,13.394,0,0,1-1.4-2.134H11.3Zm0-5.355H7.51A12.582,12.582,0,0,1,6.722,12.7H11.3Zm0-5.229H6.722a12.581,12.581,0,0,1,.789-3.823H11.3Zm0-5.229H8.144A13.389,13.389,0,0,1,9.515,3.976,13.819,13.819,0,0,1,11.3,2.12ZM22.57,11.3H18.686a14.107,14.107,0,0,0-.71-3.823h3.6A10.514,10.514,0,0,1,22.57,11.3Zm-1.8-5.229H17.418a14.592,14.592,0,0,0-1.87-3.013,15.342,15.342,0,0,0-1.273-1.4A10.622,10.622,0,0,1,20.773,6.068ZM12.7,2.118a13.823,13.823,0,0,1,1.748,1.815,13.4,13.4,0,0,1,1.4,2.134H12.7Zm0,5.355H16.49a12.581,12.581,0,0,1,.789,3.823H12.7Zm0,5.229h4.575a12.581,12.581,0,0,1-.789,3.823H12.7Zm0,9.176V17.932h3.152a13.386,13.386,0,0,1-1.371,2.092A13.819,13.819,0,0,1,12.7,21.88Zm1.573.467a15.356,15.356,0,0,0,1.273-1.4,14.59,14.59,0,0,0,1.87-3.013h3.354A10.622,10.622,0,0,1,14.276,22.347Zm7.3-5.821h-3.6a14.109,14.109,0,0,0,.71-3.823H22.57A10.514,10.514,0,0,1,21.577,16.526Z" fill="#fff"/>
    </g>
  </g>
</svg>
