<svg xmlns="http://www.w3.org/2000/svg" width="27.307" height="24" viewBox="0 0 27.307 24">
  <g id="shopping-cart_1_" data-name="shopping-cart (1)" transform="translate(0 0)">
    <path id="Path_3" data-name="Path 3" d="M8.8,15H23.307a.8.8,0,0,0,.769-.544l3.2-10.5a.713.713,0,0,0-.13-.658.82.82,0,0,0-.639-.3H6.953L6.381.587A.791.791,0,0,0,5.6,0H.8A.776.776,0,0,0,0,.75a.776.776,0,0,0,.8.75H4.958L7.847,13.686A2.255,2.255,0,0,0,6.4,15.75,2.331,2.331,0,0,0,8.8,18H23.307a.752.752,0,1,0,0-1.5H8.8a.751.751,0,1,1,0-1.5ZM25.446,4.5l-2.743,9H9.442l-2.133-9Zm0,0" transform="translate(0 0)" fill="#fff"/>
    <path id="Path_4" data-name="Path 4" d="M150,363a3,3,0,1,0,3-3A3,3,0,0,0,150,363Zm3-1a1,1,0,1,1-1,1A1,1,0,0,1,153,362Zm0,0" transform="translate(-142.427 -342)" fill="#fff"/>
    <path id="Path_5" data-name="Path 5" d="M362,363a3,3,0,1,0,3-3A3,3,0,0,0,362,363Zm3-1a1,1,0,1,1-1,1A1,1,0,0,1,365,362Zm0,0" transform="translate(-344.693 -342)" fill="#fff"/>
  </g>
</svg>
