<svg xmlns="http://www.w3.org/2000/svg" width="33.318" height="33.318" viewBox="0 0 33.318 33.318">
  <g id="id_1_" data-name="id (1)" transform="translate(0.001)">
    <path id="Path_16449" data-name="Path 16449" d="M31.651,0H1.665A1.666,1.666,0,0,0,0,1.666V31.652a1.666,1.666,0,0,0,1.666,1.666H31.651a1.666,1.666,0,0,0,1.666-1.666V1.666A1.666,1.666,0,0,0,31.651,0Zm.555,31.652a.555.555,0,0,1-.555.555H1.665a.555.555,0,0,1-.555-.555V1.666a.555.555,0,0,1,.555-.555H31.651a.555.555,0,0,1,.555.555Zm0,0" transform="translate(0 0)" fill="#1034a6"/>
    <path id="Path_16450" data-name="Path 16450" d="M46.349,35.8a1.666,1.666,0,0,0-1.666-1.666H35.8A1.666,1.666,0,0,0,34.133,35.8v6.663A1.666,1.666,0,0,0,35.8,44.128h8.885a1.666,1.666,0,0,0,1.666-1.666ZM39.13,38.575a1.111,1.111,0,1,1,1.111,1.111,1.111,1.111,0,0,1-1.111-1.111ZM40.241,40.8a2.781,2.781,0,0,1,2.721,2.221H37.52A2.781,2.781,0,0,1,40.241,40.8Zm5,1.666a.555.555,0,0,1-.555.555h-.6a3.891,3.891,0,0,0-2.2-2.962,2.221,2.221,0,1,0-3.287,0,3.891,3.891,0,0,0-2.2,2.962h-.6a.555.555,0,0,1-.555-.555V35.8a.555.555,0,0,1,.555-.555h8.885a.555.555,0,0,1,.555.555Zm0,0" transform="translate(-31.912 -31.912)" fill="#1034a6"/>
    <path id="Path_16451" data-name="Path 16451" d="M261.9,34.133H248.02a.555.555,0,1,0,0,1.111H261.9a.555.555,0,1,0,0-1.111Zm0,0" transform="translate(-231.362 -31.912)" fill="#1034a6"/>
    <path id="Path_16452" data-name="Path 16452" d="M261.9,68.266H248.02a.555.555,0,1,0,0,1.111H261.9a.555.555,0,1,0,0-1.111Zm0,0" transform="translate(-231.362 -63.823)" fill="#1034a6"/>
    <path id="Path_16453" data-name="Path 16453" d="M299.223,103.509h7.219a.555.555,0,1,0,0-1.111h-7.219a.555.555,0,0,0,0,1.111Zm0,0" transform="translate(-279.233 -95.735)" fill="#1034a6"/>
    <path id="Path_16454" data-name="Path 16454" d="M248.576,102.954a.555.555,0,1,1-.555-.555A.555.555,0,0,1,248.576,102.954Zm0,0" transform="translate(-231.362 -95.735)" fill="#1034a6"/>
    <path id="Path_16455" data-name="Path 16455" d="M299.223,137.646h7.219a.555.555,0,1,0,0-1.111h-7.219a.555.555,0,0,0,0,1.111Zm0,0" transform="translate(-279.233 -127.651)" fill="#1034a6"/>
    <path id="Path_16456" data-name="Path 16456" d="M248.576,137.09a.555.555,0,1,1-.555-.555A.555.555,0,0,1,248.576,137.09Zm0,0" transform="translate(-231.362 -127.65)" fill="#1034a6"/>
    <path id="Path_16457" data-name="Path 16457" d="M299.223,171.778h7.219a.555.555,0,1,0,0-1.111h-7.219a.555.555,0,0,0,0,1.111Zm0,0" transform="translate(-279.233 -159.562)" fill="#1034a6"/>
    <path id="Path_16458" data-name="Path 16458" d="M248.576,171.223a.555.555,0,1,1-.555-.555A.555.555,0,0,1,248.576,171.223Zm0,0" transform="translate(-231.362 -159.562)" fill="#1034a6"/>
    <path id="Path_16459" data-name="Path 16459" d="M58.32,231.509H54.33a1.666,1.666,0,1,0,0,1.111h1.213v.555a.555.555,0,0,0,1.111,0v-.555h1.111v1.111a.555.555,0,0,0,1.111,0v-1.666A.555.555,0,0,0,58.32,231.509Zm-5.553,1.111a.555.555,0,1,1,.555-.555A.555.555,0,0,1,52.767,232.62Zm0,0" transform="translate(-47.77 -215.406)" fill="#1034a6"/>
    <path id="Path_16460" data-name="Path 16460" d="M221.93,231.446l.718.718-.718.718a.555.555,0,1,0,.785.785l.718-.718.718.718a.555.555,0,0,0,.785-.785l-.718-.718.718-.718a.555.555,0,0,0-.785-.785l-.718.718-.718-.718a.555.555,0,0,0-.785.785Zm0,0" transform="translate(-207.33 -215.505)" fill="#1034a6"/>
    <path id="Path_16461" data-name="Path 16461" d="M290.3,233.667a.556.556,0,0,0,.785,0l.718-.718.718.718a.555.555,0,0,0,.785-.785l-.718-.718.718-.718a.555.555,0,0,0-.785-.785l-.718.718-.718-.718a.555.555,0,0,0-.785.785l.718.718-.718.718A.555.555,0,0,0,290.3,233.667Zm0,0" transform="translate(-271.255 -215.505)" fill="#1034a6"/>
    <path id="Path_16462" data-name="Path 16462" d="M361.472,230.564a.556.556,0,0,0-.785,0l-.718.718-.718-.718a.555.555,0,0,0-.785.785l.718.718-.718.718a.555.555,0,1,0,.785.785l.718-.718.718.718a.555.555,0,0,0,.785-.785l-.718-.718.718-.718A.556.556,0,0,0,361.472,230.564Zm0,0" transform="translate(-334.981 -215.409)" fill="#1034a6"/>
    <path id="Path_16463" data-name="Path 16463" d="M429.737,230.564a.556.556,0,0,0-.785,0l-.718.718-.718-.718a.555.555,0,0,0-.785.785l.718.718-.718.718a.555.555,0,1,0,.785.785l.718-.718.718.718a.555.555,0,0,0,.785-.785l-.718-.718.718-.718A.555.555,0,0,0,429.737,230.564Zm0,0" transform="translate(-398.804 -215.409)" fill="#1034a6"/>
    <path id="Path_16464" data-name="Path 16464" d="M79.022,332.8a2.221,2.221,0,0,0-2.221,2.221.555.555,0,0,0,1.111,0,1.111,1.111,0,1,1,1.111,1.111.555.555,0,0,0-.555.555V337.8a.555.555,0,0,0,1.111,0v-.625a2.221,2.221,0,0,0-.555-4.372Zm0,0" transform="translate(-71.804 -311.145)" fill="#1034a6"/>
    <path id="Path_16465" data-name="Path 16465" d="M103.509,435.754a.555.555,0,1,1-.555-.555A.555.555,0,0,1,103.509,435.754Zm0,0" transform="translate(-95.736 -406.879)" fill="#1034a6"/>
    <path id="Path_16466" data-name="Path 16466" d="M237.97,401.066H222.422a.555.555,0,0,0,0,1.111H237.97a.555.555,0,1,0,0-1.111Zm0,0" transform="translate(-207.43 -374.967)" fill="#1034a6"/>
    <path id="Path_16467" data-name="Path 16467" d="M230.2,435.2h-7.774a.555.555,0,0,0,0,1.111H230.2a.555.555,0,0,0,0-1.111Zm0,0" transform="translate(-207.43 -406.879)" fill="#1034a6"/>
    <path id="Path_16468" data-name="Path 16468" d="M237.416,332.8H222.978a1.111,1.111,0,0,0-1.111,1.111v1.111a1.111,1.111,0,0,0,1.111,1.111h14.438a1.111,1.111,0,0,0,1.111-1.111v-1.111A1.111,1.111,0,0,0,237.416,332.8Zm-14.438,1.111h11.106v1.111H222.978Zm12.216,1.111v-1.111h2.221v1.111Zm0,0" transform="translate(-207.431 -311.145)" fill="#1034a6"/>
  </g>
</svg>
