<svg xmlns="http://www.w3.org/2000/svg" width="28.762" height="35.906" viewBox="0 0 28.762 35.906">
  <g id="Group_10890" data-name="Group 10890" transform="translate(-164.299 -143.013)">
    <path id="Path_16344" data-name="Path 16344" d="M185.871,146.261l-7.19-3.248-7.191,3.248-7.191,3.248v.839h28.762v-.839Z" transform="translate(0)" fill="#1034a6"/>
    <rect id="Rectangle_122" data-name="Rectangle 122" width="26.759" height="1.678" transform="translate(165.301 151.96)" fill="#1034a6"/>
    <rect id="Rectangle_123" data-name="Rectangle 123" width="27.242" height="1.678" transform="translate(165.059 173.942)" fill="#1034a6"/>
    <rect id="Rectangle_124" data-name="Rectangle 124" width="28.762" height="1.678" transform="translate(164.299 177.241)" fill="#1034a6"/>
    <path id="Path_16345" data-name="Path 16345" d="M181.666,219.672a.839.839,0,0,0,0-1.678h-3.077a.839.839,0,0,0,0,1.678h.28v13.033h-.28a.839.839,0,1,0,0,1.678h3.077a.839.839,0,1,0,0-1.678h-.28V219.672Z" transform="translate(-11.194 -62.398)" fill="#1034a6"/>
    <path id="Path_16346" data-name="Path 16346" d="M220.387,219.672a.839.839,0,0,0,0-1.678H217.31a.839.839,0,0,0,0,1.678h.28v13.033h-.28a.839.839,0,1,0,0,1.678h3.077a.839.839,0,1,0,0-1.678h-.28V219.672Z" transform="translate(-43.417 -62.398)" fill="#1034a6"/>
    <path id="Path_16347" data-name="Path 16347" d="M259.109,219.672a.839.839,0,1,0,0-1.678h-3.077a.839.839,0,1,0,0,1.678h.28v13.033h-.28a.839.839,0,1,0,0,1.678h3.077a.839.839,0,1,0,0-1.678h-.28V219.672Z" transform="translate(-75.641 -62.398)" fill="#1034a6"/>
    <path id="Path_16348" data-name="Path 16348" d="M297.832,219.672a.839.839,0,1,0,0-1.678h-3.077a.839.839,0,1,0,0,1.678h.28v13.033h-.28a.839.839,0,1,0,0,1.678h3.077a.839.839,0,1,0,0-1.678h-.28V219.672Z" transform="translate(-107.866 -62.398)" fill="#1034a6"/>
  </g>
</svg>
