<svg xmlns="http://www.w3.org/2000/svg" width="23.151" height="23.15" viewBox="0 0 23.151 23.15">
  <g id="Group_10917" data-name="Group 10917" transform="matrix(0.999, -0.035, 0.035, 0.999, 0, 0.781)">
    <path id="Path_16343" data-name="Path 16343" d="M20.587,14.692a12.708,12.708,0,0,1-3.991-.636,1.824,1.824,0,0,0-1.774.374l-2.517,1.9a13.908,13.908,0,0,1-6.253-6.252L7.9,7.627a1.809,1.809,0,0,0,.445-1.833,12.728,12.728,0,0,1-.638-4A1.8,1.8,0,0,0,5.907,0H1.8A1.8,1.8,0,0,0,0,1.8,20.61,20.61,0,0,0,20.587,22.383a1.8,1.8,0,0,0,1.8-1.8v-4.1A1.8,1.8,0,0,0,20.587,14.692Z" fill="#ff5440"/>
  </g>
</svg>
