<svg xmlns="http://www.w3.org/2000/svg" width="23.724" height="25.648" viewBox="0 0 23.724 25.648">
  <g id="Group_172" data-name="Group 172" transform="translate(-285.776 -1188)">
    <path id="Path_16340" data-name="Path 16340" d="M640.879,332.051h-3.526v-2.244h3.526v2.244Zm4.809-2.244v2.244h-3.527v-2.244Zm4.809,0v2.244h-3.527v-2.244Zm4.809,0v2.244h-3.527v-2.244Zm0,5.771h-3.527v-2.244h3.527v2.244Zm0,2.725-3.527.32v-1.763h3.527V338.3Zm-14.427-1.442v2.725l-3.526.32v-3.045Zm0-1.283h-3.526v-2.244h3.526v2.244Zm4.809,0h-3.527v-2.244h3.527v2.244Zm1.282,0v-2.244H650.5v2.244Zm-1.282,3.59-3.527.32v-2.628h3.527v2.308Zm1.282-2.308H650.5v1.859l-3.527.32v-2.18Zm10.259,3.206V327.883H637.353v-.321a2.874,2.874,0,0,0-2.886-2.886.962.962,0,0,0,0,1.924.945.945,0,0,1,.962.962v16.03a2.873,2.873,0,0,0,2.885,2.885h17.953a.961.961,0,1,0,0-1.923H638.315a.945.945,0,0,1-.962-.962v-1.763l19.877-1.763Z" transform="translate(-347.73 863.323)" fill="#1034a6"/>
    <path id="Path_16341" data-name="Path 16341" d="M642.971,358.436a1.924,1.924,0,1,1-1.924-1.924,1.924,1.924,0,0,1,1.924,1.924Z" transform="translate(-349.501 853.289)" fill="#1034a6"/>
    <path id="Path_16342" data-name="Path 16342" d="M663.569,358.436a1.924,1.924,0,1,1-1.924-1.924,1.923,1.923,0,0,1,1.924,1.924Z" transform="translate(-355.993 853.289)" fill="#1034a6"/>
  </g>
</svg>
