<svg id="Group_26" data-name="Group 26" xmlns="http://www.w3.org/2000/svg" xmlns:xlink="http://www.w3.org/1999/xlink" width="113.057" height="105" viewBox="0 0 113.057 105">
  <defs>
    <clipPath id="clip-path">
      <path id="Clip_12" data-name="Clip 12" d="M0,0H16.27V20.762H0Z" transform="translate(0)" fill="none"/>
    </clipPath>
    <clipPath id="clip-path-2">
      <path id="Clip_23" data-name="Clip 23" d="M0,105H113.057V0H0Z" fill="none"/>
    </clipPath>
  </defs>
  <path id="Fill_1" data-name="Fill 1" d="M43.962,10.874C59.351,8.885,68.651,15.1,57.736,24.8,45.743,35.464,20.629,42.923,19.348,43.2s-1.478-1.406,1.771-2.57A123.838,123.838,0,0,0,38.581,31.9c11.447-6.729,14.408-16.182,8.768-17.822-4.831-1.4-17.488,3.557-27.388,15.879-11.666,14.522-10,29.874,7.892,26.471,18.923-3.6,33.221-19.071,34.777-20.868a9.688,9.688,0,0,0,2.451-6.521V0H0V41.92C4.854,28.992,20.672,13.877,43.962,10.874" transform="translate(23.988 0)" fill="#fefefe"/>
  <path id="Fill_3" data-name="Fill 3" d="M10.7,16.27H5.569C.966,16.27,0,13.641,0,11.435,0,9.079.867,7.7,2.576,7.341L13.15,4.935c-.179-1.27-.957-1.862-2.448-1.862H5.569a2.177,2.177,0,0,0-2.5,2.5v.436H0V5.569C0,1.926,1.926,0,5.569,0H10.7c3.643,0,5.568,1.926,5.568,5.569V10.7C16.27,14.345,14.345,16.27,10.7,16.27ZM13.2,8.1,3.335,10.364c-.242.085-.262.214-.262.337a2.177,2.177,0,0,0,2.5,2.5H10.7a2.177,2.177,0,0,0,2.5-2.5V8.1Z" transform="translate(0 73.177)" fill="#fefefe"/>
  <path id="Fill_5" data-name="Fill 5" d="M0,4.836C0,8,1.673,9.672,4.836,9.672h6.6c1.219,0,1.763.544,1.763,1.763S12.654,13.2,11.435,13.2H0v3.072H11.435c3.163,0,4.836-1.673,4.836-4.836S14.6,6.6,11.435,6.6h-6.6c-1.219,0-1.764-.544-1.764-1.763s.544-1.763,1.764-1.763H16.271V0H4.836C1.673,0,0,1.672,0,4.836" transform="translate(17.598 73.177)" fill="#fefefe"/>
  <path id="Fill_7" data-name="Fill 7" d="M10.7,16.27H5.569C.966,16.27,0,13.641,0,11.435,0,9.079.867,7.7,2.576,7.341L13.15,4.935c-.179-1.27-.957-1.862-2.448-1.862H5.569a2.177,2.177,0,0,0-2.5,2.5v.436H0V5.569C0,1.926,1.926,0,5.569,0H10.7c3.643,0,5.568,1.926,5.568,5.569V10.7C16.27,14.345,14.345,16.27,10.7,16.27ZM13.2,8.1,3.335,10.364c-.242.085-.262.214-.262.337a2.177,2.177,0,0,0,2.5,2.5H10.7a2.177,2.177,0,0,0,2.5-2.5V8.1Z" transform="translate(61.591 73.177)" fill="#fefefe"/>
  <path id="Fill_9" data-name="Fill 9" d="M10.7,16.27H5.569C.966,16.27,0,13.641,0,11.435,0,9.079.867,7.7,2.576,7.341L13.15,4.935c-.179-1.27-.957-1.862-2.448-1.862H5.569a2.177,2.177,0,0,0-2.5,2.5v.436H0V5.569C0,1.926,1.926,0,5.569,0H10.7c3.643,0,5.568,1.926,5.568,5.569V10.7C16.27,14.345,14.345,16.27,10.7,16.27ZM13.2,8.1,3.335,10.364c-.242.085-.262.214-.262.337a2.177,2.177,0,0,0,2.5,2.5H10.7a2.177,2.177,0,0,0,2.5-2.5V8.1Z" transform="translate(79.189 73.177)" fill="#fefefe"/>
  <g id="Group_13" data-name="Group 13" transform="translate(96.786 73.177)">
    <path id="Clip_12-2" data-name="Clip 12" d="M0,0H16.27V20.762H0Z" transform="translate(0 0)" fill="none"/>
    <g id="Group_13-2" data-name="Group 13" transform="translate(0 0)" clip-path="url(#clip-path)">
      <path id="Fill_11" data-name="Fill 11" d="M16.27,20.762H13.2V16.27H5.569C1.926,16.27,0,14.345,0,10.7V5.569C0,1.926,1.926,0,5.569,0H10.7c3.643,0,5.568,1.926,5.568,5.569V20.761ZM5.569,3.073a2.177,2.177,0,0,0-2.5,2.5V10.7a2.177,2.177,0,0,0,2.5,2.5H13.2V5.569a2.177,2.177,0,0,0-2.5-2.5Z" transform="translate(0 0)" fill="#fefefe"/>
    </g>
  </g>
  <path id="Fill_14" data-name="Fill 14" d="M0,1.852H2.635L1.852,0Z" transform="translate(46.205 87.595)" fill="#fefefe"/>
  <path id="Fill_16" data-name="Fill 16" d="M22.882,0,18.774,11.49,14.653,0H11.517L7.409,11.49,3.288,0H0L5.842,16.271H10.58c0-.018-.013-.028-.013-.047V6.057a.4.4,0,0,1,.271-.4A.408.408,0,0,1,11,5.624a.4.4,0,0,1,.3.128l6.922,6.922a.384.384,0,0,1,.094.466.4.4,0,0,1-.4.27H15.34l1.207,2.86h3.767L26.171,0Z" transform="translate(34.644 73.177)" fill="#fefefe"/>
  <path id="Fill_18" data-name="Fill 18" d="M7.886,0H6.55A1.405,1.405,0,0,0,5.219.637,3.894,3.894,0,0,0,2.873,0H0V7.417H1.4V1.4H2.873A1.882,1.882,0,0,1,5.014,3.541V7.417h1.4V1.536c0-.113.023-.136.136-.136H7.886a1.882,1.882,0,0,1,2.141,2.141V7.417h1.4V3.541C11.428,1.192,10.236,0,7.886,0" transform="translate(84.583 97.583)" fill="#fefefe"/>
  <path id="Fill_20" data-name="Fill 20" d="M.812,0A.732.732,0,0,0,0,.812a.732.732,0,0,0,.812.812A.732.732,0,0,0,1.624.812.732.732,0,0,0,.812,0" transform="translate(96.504 95.533)" fill="#fefefe"/>
  <path id="Clip_23-2" data-name="Clip 23" d="M0,105H113.057V0H0Z" fill="none"/>
  <g id="Mask_Group_1" data-name="Mask Group 1" clip-path="url(#clip-path-2)">
    <path id="Fill_22" data-name="Fill 22" d="M0,7.417H1.4V0H0Z" transform="translate(96.616 97.583)" fill="#fefefe"/>
    <path id="Fill_24" data-name="Fill 24" d="M0,2.2a1.971,1.971,0,0,0,2.2,2.2H5.212c.556,0,.8.248.8.8s-.248.8-.8.8H0v1.4H5.212a1.97,1.97,0,0,0,2.2-2.2,1.97,1.97,0,0,0-2.2-2.2H2.2c-.556,0-.8-.248-.8-.8s.248-.8.8-.8H7.416V0H2.2A1.971,1.971,0,0,0,0,2.2" transform="translate(98.621 97.583)" fill="#fefefe"/>
    <path id="Fill_25" data-name="Fill 25" d="M3.541,0C1.192,0,0,1.192,0,3.541V7.417H1.4V3.541A1.882,1.882,0,0,1,3.541,1.4H6.414V0Z" transform="translate(106.643 97.583)" fill="#fefefe"/>
  </g>
</svg>
