<svg xmlns="http://www.w3.org/2000/svg" xmlns:xlink="http://www.w3.org/1999/xlink" width="50.141" height="50.141" viewBox="0 0 50.141 50.141">
  <defs>
    <clipPath id="clip-path">
      <path id="Clip_2" data-name="Clip 2" d="M0,0H50.141V50.141H0Z" transform="translate(0 0)" fill="none"/>
    </clipPath>
    <clipPath id="clip-path-2">
      <path id="Clip_5" data-name="Clip 5" d="M0,50.141H50.141V0H0Z" fill="none"/>
    </clipPath>
  </defs>
  <g id="Group_14940" data-name="Group 14940" transform="translate(-690.225 -1655.48)">
    <g id="Group_3" data-name="Group 3" transform="translate(690.225 1655.48)">
      <path id="Clip_2-2" data-name="Clip 2" d="M0,0H50.141V50.141H0Z" fill="none"/>
      <g id="Group_3-2" data-name="Group 3" clip-path="url(#clip-path)">
        <path id="Fill_1" data-name="Fill 1" d="M25.071,50.141h0A25.071,25.071,0,0,1,0,25.071H0a25.071,25.071,0,0,1,50.142,0h0a25.071,25.071,0,0,1-25.071,25.07" transform="translate(-0.001 0)" fill="#fff"/>
      </g>
    </g>
    <g id="Mask_Group_1" data-name="Mask Group 1" transform="translate(690.225 1655.48)" clip-path="url(#clip-path-2)">
      <path id="Fill_4" data-name="Fill 4" d="M0,16.762H5.189V0H0Z" transform="translate(13.702 19.481)" fill="#1034a6"/>
      <path id="Fill_6" data-name="Fill 6" d="M3.068,6.186A3.093,3.093,0,1,0,0,3.093,3.081,3.081,0,0,0,3.068,6.186" transform="translate(13.204 11.101)" fill="#1034a6"/>
      <path id="Fill_7" data-name="Fill 7" d="M4.977,8.475c0-2.357,1.084-3.76,3.162-3.76,1.908,0,2.824,1.348,2.824,3.76v8.8h5.164V6.661c0-4.49-2.545-6.661-6.1-6.661A5.846,5.846,0,0,0,4.977,2.769V.511H0V17.273H4.977Z" transform="translate(22.208 18.97)" fill="#1034a6"/>
    </g>
  </g>
</svg>
