<svg xmlns="http://www.w3.org/2000/svg" xmlns:xlink="http://www.w3.org/1999/xlink" width="50.141" height="50.141" viewBox="0 0 50.141 50.141">
  <defs>
    <clipPath id="clip-path">
      <path id="Clip_2" data-name="Clip 2" d="M0,0H50.141V50.141H0Z" transform="translate(0 0)" fill="none"/>
    </clipPath>
  </defs>
  <g id="Group_14941" data-name="Group 14941" transform="translate(-750.593 -1655.48)">
    <g id="Group_3" data-name="Group 3" transform="translate(750.593 1655.48)">
      <g id="Group_3-2" data-name="Group 3" clip-path="url(#clip-path)">
        <path id="Fill_1" data-name="Fill 1" d="M25.071,50.141h0A25.071,25.071,0,0,1,0,25.071H0a25.071,25.071,0,0,1,50.142,0h0a25.071,25.071,0,0,1-25.071,25.07" transform="translate(-0.001 0)" fill="#fff"/>
      </g>
    </g>
    <path id="Fill_4" data-name="Fill 4" d="M13.745,27.493c-3.694,0-4.184-.016-5.667-.083a10.142,10.142,0,0,1-3.336-.639,6.719,6.719,0,0,1-2.434-1.585A6.72,6.72,0,0,1,.721,22.751a10.176,10.176,0,0,1-.639-3.338C.016,17.953,0,17.466,0,13.746S.016,9.54.082,8.078A10.157,10.157,0,0,1,.721,4.743,6.723,6.723,0,0,1,2.307,2.307,6.7,6.7,0,0,1,4.741.722,10.171,10.171,0,0,1,8.078.083C9.535.016,10.021,0,13.745,0s4.211.016,5.667.083A10.174,10.174,0,0,1,22.75.722a6.7,6.7,0,0,1,2.434,1.585,6.741,6.741,0,0,1,1.586,2.435,10.157,10.157,0,0,1,.639,3.335c.066,1.489.082,1.98.082,5.669s-.016,4.18-.082,5.667a10.176,10.176,0,0,1-.639,3.338,7.035,7.035,0,0,1-4.021,4.019,10.145,10.145,0,0,1-3.338.639C17.931,27.477,17.44,27.493,13.745,27.493Zm0-25.016c-3.666,0-4.1.014-5.554.081a7.573,7.573,0,0,0-2.553.473A4.292,4.292,0,0,0,4.057,4.058,4.268,4.268,0,0,0,3.031,5.64a7.573,7.573,0,0,0-.474,2.552c-.066,1.431-.079,1.862-.079,5.555s.014,4.124.079,5.555a7.591,7.591,0,0,0,.474,2.551,4.246,4.246,0,0,0,1.027,1.58,4.281,4.281,0,0,0,1.582,1.029,7.573,7.573,0,0,0,2.553.473c1.452.067,1.887.081,5.554.081s4.1-.014,5.555-.081a7.591,7.591,0,0,0,2.553-.473,4.556,4.556,0,0,0,2.608-2.61,7.591,7.591,0,0,0,.474-2.551c.067-1.452.081-1.887.081-5.555s-.014-4.1-.081-5.555a7.573,7.573,0,0,0-.474-2.552,4.257,4.257,0,0,0-1.028-1.582,4.271,4.271,0,0,0-1.58-1.028A7.591,7.591,0,0,0,19.3,2.557C17.848,2.491,17.413,2.477,13.745,2.477Z" transform="translate(761.918 1666.805)" fill="#1034a6"/>
    <path id="Fill_6" data-name="Fill 6" d="M7.058,14.117a7.059,7.059,0,1,1,7.059-7.059A7.067,7.067,0,0,1,7.058,14.117Zm0-11.641a4.582,4.582,0,1,0,4.583,4.581A4.587,4.587,0,0,0,7.058,2.477Z" transform="translate(768.605 1673.492)" fill="#1034a6"/>
    <path id="Fill_8" data-name="Fill 8" d="M3.3,1.649A1.649,1.649,0,1,1,1.649,0,1.65,1.65,0,0,1,3.3,1.649" transform="translate(781.353 1671.563)" fill="#1034a6"/>
  </g>
</svg>
