<svg xmlns="http://www.w3.org/2000/svg" xmlns:xlink="http://www.w3.org/1999/xlink" width="50.141" height="50.141" viewBox="0 0 50.141 50.141">
  <defs>
    <clipPath id="clip-path">
      <path id="Clip_2" data-name="Clip 2" d="M0,0H50.141V50.141H0Z" transform="translate(0 0)" fill="none"/>
    </clipPath>
  </defs>
  <g id="Group_14939" data-name="Group 14939" transform="translate(-626.868 -1655.48)">
    <g id="Group_3" data-name="Group 3" transform="translate(626.868 1655.48)">
      <path id="Clip_2-2" data-name="Clip 2" d="M0,0H50.141V50.141H0Z" fill="none"/>
      <g id="Group_3-2" data-name="Group 3" clip-path="url(#clip-path)">
        <path id="Fill_1" data-name="Fill 1" d="M25.071,50.141h0A25.071,25.071,0,0,1,0,25.071H0a25.071,25.071,0,0,1,50.142,0h0a25.071,25.071,0,0,1-25.071,25.07" transform="translate(-0.001 0)" fill="#fff"/>
      </g>
    </g>
    <path id="Fill_4" data-name="Fill 4" d="M0,19.248A15.506,15.506,0,0,0,8.4,21.71,15.5,15.5,0,0,0,23.98,5.407a11.115,11.115,0,0,0,2.735-2.838,10.93,10.93,0,0,1-3.147.863A5.488,5.488,0,0,0,25.976.4,11.015,11.015,0,0,1,22.5,1.731a5.484,5.484,0,0,0-9.34,5A15.552,15.552,0,0,1,1.86,1a5.487,5.487,0,0,0,1.7,7.318,5.448,5.448,0,0,1-2.485-.686,5.49,5.49,0,0,0,4.4,5.445,5.511,5.511,0,0,1-2.475.094,5.486,5.486,0,0,0,5.121,3.806A11.012,11.012,0,0,1,0,19.248" transform="translate(638.581 1669.695)" fill="#1034a6"/>
  </g>
</svg>
