<svg xmlns="http://www.w3.org/2000/svg" width="29.336" height="23.016" viewBox="0 0 29.336 23.016">
  <g id="Group_10967" data-name="Group 10967" transform="translate(-250 -303.858)">
    <g id="Group_10943" data-name="Group 10943" transform="translate(257.972 303.858)">
      <g id="Group_10927" data-name="Group 10927" transform="translate(0 0)">
        <path id="Path_16358" data-name="Path 16358" d="M392.567,309.357c-3.246,0-6.7-.964-6.7-2.75s3.45-2.75,6.7-2.75,6.7.964,6.7,2.75S395.813,309.357,392.567,309.357Zm0-4.645c-3.619,0-5.842,1.1-5.842,1.9s2.222,1.9,5.842,1.9,5.842-1.1,5.842-1.9S396.187,304.712,392.567,304.712Z" transform="translate(-385.871 -303.858)" fill="#1034a6"/>
      </g>
      <g id="Group_10928" data-name="Group 10928" transform="translate(0 2.323)">
        <path id="Path_16359" data-name="Path 16359" d="M392.567,348.943c-3.246,0-6.7-.964-6.7-2.75V343.87a.427.427,0,0,1,.854,0c0,.791,2.222,1.9,5.842,1.9s5.842-1.1,5.842-1.9a.427.427,0,0,1,.854,0v2.323C399.263,347.979,395.813,348.943,392.567,348.943Zm-5.842-3.675v.925c0,.791,2.222,1.9,5.842,1.9s5.842-1.1,5.842-1.9v-.925c-1.225.886-3.583,1.352-5.842,1.352S387.951,346.153,386.725,345.267Z" transform="translate(-385.871 -343.443)" fill="#1034a6"/>
      </g>
      <g id="Group_10929" data-name="Group 10929" transform="translate(0 4.645)">
        <path id="Path_16360" data-name="Path 16360" d="M392.572,388.53h-.166l-.161,0h0l-.163,0c-.1,0-.212-.006-.325-.012l-.266-.015-.131-.009c-.217-.015-.437-.035-.654-.06l-.117-.014-.143-.018-.11-.015c-.078-.01-.162-.022-.244-.036l-.12-.019-.116-.02c-.119-.02-.237-.042-.353-.066l-.2-.041-.144-.033-.109-.026c-.106-.025-.212-.053-.313-.081l-.11-.031-.011,0-.029-.008-.049-.014-.154-.047-.091-.029h0l-.022-.008-.1-.035-.118-.042-.111-.041-.019-.007-.092-.036-.058-.023-.085-.036-.1-.044-.027-.012c-.073-.033-.138-.063-.2-.093-.034-.017-.072-.036-.109-.056l-.095-.051c-.039-.021-.08-.045-.12-.069l-.077-.047-.049-.031-.037-.023-.011-.007-.012-.008-.026-.018-.044-.03-.008-.006-.078-.057a2.409,2.409,0,0,1-.542-.545l0-.006-.022-.033a1.59,1.59,0,0,1-.108-.19c-.014-.029-.025-.053-.035-.079l0-.011h0c-.008-.021-.017-.042-.024-.063l0-.011c-.009-.026-.016-.051-.023-.077s-.009-.03-.012-.046l-.006-.025c0-.014-.006-.028-.009-.042l0-.027,0-.025c0-.014,0-.029-.005-.043s0-.037,0-.055,0-.06,0-.09v-2.323a.427.427,0,1,1,.854,0c0,.791,2.222,1.9,5.842,1.9s5.842-1.1,5.842-1.9a.427.427,0,1,1,.854,0v2.323C399.268,387.567,395.818,388.53,392.572,388.53Zm-.317-.857h0l.156,0h.158c3.619,0,5.842-1.1,5.842-1.9v-.925c-1.225.886-3.583,1.353-5.842,1.353s-4.617-.467-5.842-1.353v.925c0,.012,0,.023,0,.035s0,.007,0,.01,0,.008,0,.015v0l0,.011,0,.02,0,.012,0,.007,0,.018c0,.008,0,.016.007.024l.012.031.006.014.012.026a.733.733,0,0,0,.051.09l.005.008.009.013a1.565,1.565,0,0,0,.352.347l.065.047,0,0,.065.044.016.01.008,0,.045.029.005,0,.051.031.006,0c.03.018.06.036.092.053l.087.047.086.044c.055.027.11.054.174.082l0,0,.012.005.1.042.07.029.044.018.093.036.005,0,.01,0,.085.032.008,0,.11.039.089.03.023.008.01,0,.062.02.011,0,.141.043.067.019.02.006.085.024.01,0c.092.026.188.051.287.074l.1.024.008,0,.126.029.184.038c.107.022.216.042.325.061l.114.019.111.018c.077.012.152.023.228.033l.1.014.129.016.118.014c.2.023.411.042.616.056l.124.008.254.014c.107.005.21.009.307.011Zm-4.042-.678h0Zm0,0h0Zm0,0h0Zm0,0h0Zm0,0h0Zm0,0h0Zm-1.468-1.122,0,.012Zm0,0Zm0,0h0Zm0,0h0Z" transform="translate(-385.876 -383.031)" fill="#1034a6"/>
      </g>
      <g id="Group_10930" data-name="Group 10930" transform="translate(0 6.968)">
        <path id="Path_16361" data-name="Path 16361" d="M388.427,425.212a.427.427,0,0,1-.137-.023l-.021-.007-.1-.035-.121-.043-.1-.038-.025-.01-.091-.035-.058-.023-.083-.035-.1-.045-.025-.011c-.059-.026-.12-.055-.2-.092-.037-.018-.075-.037-.112-.057l-.1-.051c-.039-.021-.08-.045-.119-.068l-.076-.047-.049-.031-.036-.023-.011-.007-.014-.009-.027-.019-.043-.03-.009-.006-.041-.03a.427.427,0,0,1-.852-.049v-1.346a.427.427,0,1,1,.854,0c0,.012,0,.023,0,.035s0,.007,0,.01,0,.008,0,.015v0l0,.011,0,.02,0,.011,0,.009,0,.017c0,.008,0,.016.007.025l.012.031.005.014.008.018,0,.007a.75.75,0,0,0,.051.09l.005.008.008.012a1.569,1.569,0,0,0,.353.348l.065.047.005,0,.065.045.015.01.008,0,.045.028.005,0,.051.031.006,0c.03.018.06.036.092.053l.087.047.086.044c.07.034.123.059.173.082l0,0,.011,0,.1.042.006,0,.064.027.044.018.093.036.005,0,.006,0,.1.035.112.04.089.03.024.008h0a.427.427,0,0,1-.137.832Zm.144-.829h0Zm-.365-.128h0Zm0,0h0Zm0,0h0Zm0,0h0Zm0,0h0Zm-.279-.116h0Zm-1.179-.974h0Zm0-.011h0Zm0-.019v0Zm0,0h0Zm0,0h0Zm0,0h0Zm0,0h0Zm0,0h0Zm0,0h0Zm0,0h0Zm0,0v0Z" transform="translate(-385.876 -422.616)" fill="#1034a6"/>
      </g>
      <g id="Group_10931" data-name="Group 10931" transform="translate(2.208 8.736)">
        <path id="Path_16362" data-name="Path 16362" d="M424.165,453.685a.427.427,0,0,1-.121-.017l-.028-.008-.05-.015-.159-.049a.427.427,0,0,1,.26-.814l.14.043.078.023a.427.427,0,0,1-.12.837Z" transform="translate(-423.51 -452.762)" fill="#1034a6"/>
      </g>
      <g id="Group_10932" data-name="Group 10932" transform="translate(2.44 6.968)">
        <path id="Path_16363" data-name="Path 16363" d="M431.715,428.115a16.875,16.875,0,0,1-1.748-.089.427.427,0,0,1,.089-.85,16.013,16.013,0,0,0,1.659.084c3.619,0,5.842-1.1,5.842-1.9v-.925c-1.225.886-3.583,1.352-5.842,1.352h-.165l-.163,0h0l-.164,0c-.1,0-.211-.006-.324-.012l-.266-.015-.131-.009c-.217-.015-.437-.035-.654-.06l-.118-.014-.142-.018-.11-.015c-.078-.01-.162-.022-.244-.036l-.12-.019L429,425.57c-.12-.02-.238-.042-.353-.066l-.2-.041-.144-.033-.109-.026c-.106-.026-.211-.053-.312-.08l-.12-.033a.427.427,0,0,1,.245-.818l.089.025.008,0c.093.026.191.051.291.075l.1.024.007,0,.127.029.184.038c.106.022.215.042.325.061l.114.019.111.018c.077.012.153.023.228.033l.1.014.129.016.118.014c.2.023.411.042.616.056l.123.008.254.014c.107.005.21.009.307.011l.155,0h0l.156,0h.158c3.619,0,5.842-1.1,5.842-1.9a.427.427,0,0,1,.854,0v2.322C438.411,427.152,434.961,428.115,431.715,428.115Z" transform="translate(-427.459 -422.616)" fill="#1034a6"/>
      </g>
      <g id="Group_10933" data-name="Group 10933" transform="translate(4.566 9.29)">
        <path id="Path_16364" data-name="Path 16364" d="M469.971,467.118a.427.427,0,0,1-.128-.835l.066-.022.144-.05.129-.048c.074-.028.136-.053.195-.078s.127-.055.194-.087l.089-.043.09-.046.016-.009.05-.027.075-.042.007,0,.024-.014.007,0a2.713,2.713,0,0,0,.312-.213l.016-.012.014-.012.049-.041.006,0,.04-.037a1.316,1.316,0,0,0,.166-.185l.008-.01v0l.013-.018.007-.011.013-.021,0-.007,0-.005,0-.006c.009-.015.018-.033.028-.052l0-.007.009-.02,0-.008c.005-.012.01-.025.014-.037l.007-.024,0-.014,0-.008,0-.012.006-.034c0-.007,0-.013,0-.02s0-.028,0-.04v-.925c-1.225.886-3.583,1.352-5.842,1.352a16.876,16.876,0,0,1-1.748-.089.427.427,0,0,1,.089-.85,16.022,16.022,0,0,0,1.659.084c3.619,0,5.842-1.1,5.842-1.9a.427.427,0,1,1,.854,0v2.323c0,.03,0,.06,0,.09s0,.037,0,.055,0,.029-.005.044,0,.015,0,.022v.007l-.005.028c0,.011,0,.024-.008.038l-.005.024c0,.016-.008.032-.013.048s-.012.043-.019.064l0,.012c-.01.029-.021.058-.033.087s-.022.051-.035.077c-.02.041-.041.081-.062.117l-.027.044-.018.028-.027.041-.027.039a2.173,2.173,0,0,1-.268.3l-.026.025-.008.008-.006.006-.029.026-.068.057-.009.007-.035.028a3.559,3.559,0,0,1-.4.274l-.049.029-.088.05-.065.035-.017.009-.11.056-.105.051c-.077.036-.157.071-.218.1s-.142.059-.222.09c-.047.019-.1.038-.152.057l-.156.054-.085.028A.428.428,0,0,1,469.971,467.118Zm1.689-2.083h0Z" transform="translate(-463.695 -462.2)" fill="#1034a6"/>
      </g>
      <g id="Group_10934" data-name="Group 10934" transform="translate(10.258 13.356)">
        <path id="Path_16365" data-name="Path 16365" d="M561.137,532.4a.427.427,0,0,1-.128-.835l.148-.047a.427.427,0,0,1,.263.813l-.155.049A.427.427,0,0,1,561.137,532.4Z" transform="translate(-560.71 -531.496)" fill="#1034a6"/>
      </g>
      <g id="Group_10935" data-name="Group 10935" transform="translate(4.566 13.452)">
        <path id="Path_16366" data-name="Path 16366" d="M465.824,534.466l-.268,0-.121,0-.1,0h-.008l-.212-.007-.162-.007-.035,0h-.007l-.2-.012h-.007l-.176-.012h-.01l-.142-.011h-.008l-.131-.012-.162-.016a.427.427,0,1,1,.091-.85l.151.015.123.011h.01l.136.011h.012l.163.011h.009l.189.011h0l.034,0,.159.007.2.007h.01l.091,0,.117,0c.139,0,.274,0,.412,0l.157,0h.006l.147,0q.277-.007.564-.025l.12-.008h.006l.11-.008h.006c.1-.007.2-.016.292-.025l.107-.011.1-.01.077-.009h.01l.1-.012h.006l.126-.016c.245-.033.483-.071.707-.115l.214-.043.106-.023c.074-.016.143-.032.211-.049l.192-.049c.066-.017.128-.034.189-.052a.427.427,0,1,1,.244.819c-.062.018-.128.037-.215.059l-.205.052c-.076.019-.155.037-.234.054l-.113.024c-.073.016-.15.031-.229.046-.238.046-.492.088-.753.122l-.134.017-.117.014-.085.01-.1.011-.111.011c-.106.01-.208.019-.311.027l-.126.01h0l-.128.008c-.2.013-.4.022-.589.027l-.162,0h-.006l-.16,0Z" transform="translate(-463.694 -533.128)" fill="#1034a6"/>
      </g>
      <g id="Group_10936" data-name="Group 10936" transform="translate(4.566 13.452)">
        <path id="Path_16367" data-name="Path 16367" d="M465.825,536.79l-.268,0h-.007l-.157,0h-.025l-.2-.007-.052,0-.159-.007-.035,0h-.007l-.2-.012-.184-.013h-.011l-.142-.011h-.008l-.131-.012-.162-.016a.427.427,0,0,1-.382-.425v-2.323a.427.427,0,0,1,.472-.425l.152.015.123.011h.01l.136.011h.012l.171.012.186.011h.036l.159.007.2.007h.006l.1,0h.008l.109,0c.133,0,.264,0,.4,0H466l.14,0h.006l.148,0q.276-.007.563-.025l.125-.008.11-.008h.007c.1-.007.2-.016.292-.025l.107-.011.1-.01.077-.009h.01l.1-.012.132-.017c.245-.033.482-.071.707-.115l.214-.043.106-.023c.073-.016.143-.032.212-.049l.192-.049c.066-.017.128-.034.189-.052a.427.427,0,0,1,.255.815c-1.128.369-1.829.881-1.829,1.336v.977a.427.427,0,0,1-.382.425l-.162.016-.13.012h-.021l-.128.01h-.011l-.189.013-.2.012h-.006l-.039,0-.156.007-.054,0-.2.007h-.025l-.157,0h-.006Zm-.437-.86h.023l.155,0h.006c.167,0,.338,0,.505,0h.006l.155,0h.023l.188-.006h.047l.156-.007.036,0,.187-.011.172-.012h.013l.038,0V535.3a1.456,1.456,0,0,1,.336-.907l-.273.023-.126.01-.131.009c-.2.013-.4.022-.588.027l-.162,0h-.006l-.144,0h-.032c-.139,0-.279,0-.417,0l-.118,0-.106,0-.215-.007-.162-.007-.035,0h-.008l-.2-.012-.164-.011v1.465l.039,0h.013l.167.012.192.011h0l.033,0,.16.007h.045Z" transform="translate(-463.695 -533.129)" fill="#1034a6"/>
      </g>
      <g id="Group_10937" data-name="Group 10937" transform="translate(10.415 11.613)">
        <path id="Path_16368" data-name="Path 16368" d="M563.813,504.381a.427.427,0,0,1-.127-.835l.061-.02.008,0,.137-.047.132-.049c.074-.028.137-.054.194-.078s.128-.055.195-.087l.089-.043.09-.046.018-.01.049-.026.074-.042.008,0,.023-.014.007,0a2.7,2.7,0,0,0,.312-.212l.016-.012.014-.012.049-.041.006,0,.04-.037a1.317,1.317,0,0,0,.166-.185l.008-.01v0l0-.006.011-.016,0-.007.01-.016.008-.012,0,0,0-.005c.009-.015.019-.033.028-.052l0-.007.009-.02,0-.008c.005-.012.01-.025.014-.037l.007-.024,0-.014,0-.008,0-.012.006-.034c0-.006,0-.012,0-.018v-.008c0-.011,0-.023,0-.034a.427.427,0,1,1,.854,0v1.346a.427.427,0,0,1-.383.425,12.035,12.035,0,0,0-2.05.382A.427.427,0,0,1,563.813,504.381Zm1.684-2.062h0Zm0-.02h0Zm0,0h0Zm0,0h0Zm0-.039h0Z" transform="translate(-563.386 -501.785)" fill="#1034a6"/>
      </g>
      <g id="Group_10938" data-name="Group 10938" transform="translate(4.566 16.171)">
        <path id="Path_16369" data-name="Path 16369" d="M465.825,582.74a16.855,16.855,0,0,1-1.748-.089.427.427,0,0,1-.383-.425V579.9a.427.427,0,0,1,.472-.425l.152.015.123.011h.01l.136.011h.013l.167.012.192.011h0l.033,0,.16.007h.045l.191.006h.023l.155,0h.006c.167,0,.338,0,.505,0h.006l.155,0h.023l.188-.006.036,0h.011l.156-.007.036,0,.187-.011.172-.012h.013l.126-.01h.019l.123-.011.153-.015a.427.427,0,0,1,.472.425v2.323a.427.427,0,0,1-.383.425A16.84,16.84,0,0,1,465.825,582.74Zm-1.276-.9a16.559,16.559,0,0,0,2.551,0V580.37l-.169.011-.2.012h-.006l-.039,0-.156.007-.054,0-.2.007h-.025l-.157,0h-.006c-.179,0-.358,0-.536,0h-.007l-.157,0h-.025l-.2-.007-.052,0-.16-.007-.035,0h-.007l-.2-.012-.164-.011Z" transform="translate(-463.695 -579.476)" fill="#1034a6"/>
      </g>
      <g id="Group_10942" data-name="Group 10942" transform="translate(0 0)">
        <g id="Group_10939" data-name="Group 10939">
          <path id="Path_16370" data-name="Path 16370" d="M392.567,309.357c-3.246,0-6.7-.964-6.7-2.75s3.45-2.75,6.7-2.75,6.7.964,6.7,2.75S395.813,309.357,392.567,309.357Zm0-4.645c-3.619,0-5.842,1.1-5.842,1.9s2.222,1.9,5.842,1.9,5.842-1.1,5.842-1.9S396.187,304.712,392.567,304.712Z" transform="translate(-385.871 -303.858)" fill="#1034a6"/>
        </g>
        <g id="Group_10940" data-name="Group 10940" transform="translate(0 2.323)">
          <path id="Path_16371" data-name="Path 16371" d="M392.567,348.943c-3.246,0-6.7-.964-6.7-2.75V343.87a.427.427,0,0,1,.854,0c0,.791,2.222,1.9,5.842,1.9s5.842-1.1,5.842-1.9a.427.427,0,0,1,.854,0v2.323C399.263,347.979,395.813,348.943,392.567,348.943Zm-5.842-3.675v.925c0,.791,2.222,1.9,5.842,1.9s5.842-1.1,5.842-1.9v-.925c-1.225.886-3.583,1.352-5.842,1.352S387.951,346.153,386.725,345.267Z" transform="translate(-385.871 -343.443)" fill="#1034a6"/>
        </g>
        <g id="Group_10941" data-name="Group 10941" transform="translate(0 4.645)">
          <path id="Path_16372" data-name="Path 16372" d="M392.572,388.53h-.166l-.161,0h0l-.163,0c-.1,0-.212-.006-.325-.012l-.266-.015-.131-.009c-.217-.015-.437-.035-.654-.06l-.117-.014-.143-.018-.11-.015c-.078-.01-.162-.022-.244-.036l-.12-.019-.116-.02c-.119-.02-.237-.042-.353-.066l-.2-.041-.144-.033-.109-.026c-.106-.025-.212-.053-.313-.081l-.11-.031-.011,0-.029-.008-.049-.014-.154-.047-.091-.029h0l-.022-.008-.1-.035-.118-.042-.111-.041-.019-.007-.092-.036-.058-.023-.085-.036-.1-.044-.027-.012c-.073-.033-.138-.063-.2-.093-.034-.017-.072-.036-.109-.056l-.095-.051c-.039-.021-.08-.045-.12-.069l-.077-.047-.049-.031-.037-.023-.011-.007-.012-.008-.026-.018-.044-.03-.008-.006-.078-.057a2.409,2.409,0,0,1-.542-.545l0-.006-.022-.033a1.59,1.59,0,0,1-.108-.19c-.014-.029-.025-.053-.035-.079l0-.011h0c-.008-.021-.017-.042-.024-.063l0-.011c-.009-.026-.016-.051-.023-.077s-.009-.03-.012-.046l-.006-.025c0-.014-.006-.028-.009-.042l0-.027,0-.025c0-.014,0-.029-.005-.043s0-.037,0-.055,0-.06,0-.09v-2.323a.427.427,0,1,1,.854,0c0,.791,2.222,1.9,5.842,1.9s5.842-1.1,5.842-1.9a.427.427,0,1,1,.854,0v2.323C399.268,387.567,395.818,388.53,392.572,388.53Zm-.317-.857h0l.156,0h.158c3.619,0,5.842-1.1,5.842-1.9v-.925c-1.225.886-3.583,1.353-5.842,1.353s-4.617-.467-5.842-1.353v.925c0,.012,0,.023,0,.035s0,.007,0,.01,0,.008,0,.015v0l0,.011,0,.02,0,.012,0,.007,0,.018c0,.008,0,.016.007.024l.012.031.006.014.012.026a.733.733,0,0,0,.051.09l.005.008.009.013a1.565,1.565,0,0,0,.352.347l.065.047,0,0,.065.044.016.01.008,0,.045.029.005,0,.051.031.006,0c.03.018.06.036.092.053l.087.047.086.044c.055.027.11.054.174.082l0,0,.012.005.1.042.07.029.044.018.093.036.005,0,.01,0,.085.032.008,0,.11.039.089.03.023.008.01,0,.062.02.011,0,.141.043.067.019.02.006.085.024.01,0c.092.026.188.051.287.074l.1.024.008,0,.126.029.184.038c.107.022.216.042.325.061l.114.019.111.018c.077.012.152.023.228.033l.1.014.129.016.118.014c.2.023.411.042.616.056l.124.008.254.014c.107.005.21.009.307.011Zm-4.042-.678h0Zm0,0h0Zm0,0h0Zm0,0h0Zm0,0h0Zm0,0h0Zm-1.468-1.122,0,.012Zm0,0Zm0,0h0Zm0,0h0Z" transform="translate(-385.876 -383.031)" fill="#1034a6"/>
        </g>
      </g>
    </g>
    <g id="Group_10966" data-name="Group 10966" transform="translate(250 312.085)">
      <g id="Group_10960" data-name="Group 10960" transform="translate(0 0)">
        <g id="Group_10944" data-name="Group 10944">
          <path id="Path_16373" data-name="Path 16373" d="M256.7,449.57c-3.246,0-6.7-.964-6.7-2.75s3.45-2.75,6.7-2.75a16.861,16.861,0,0,1,1.748.089.427.427,0,1,1-.089.85,16.021,16.021,0,0,0-1.659-.084c-3.619,0-5.842,1.1-5.842,1.9s2.222,1.9,5.842,1.9a16,16,0,0,0,1.659-.084.427.427,0,0,1,.089.85A16.878,16.878,0,0,1,256.7,449.57Z" transform="translate(-250 -444.071)" fill="#1034a6"/>
        </g>
        <g id="Group_10945" data-name="Group 10945" transform="translate(10.098 0.484)">
          <path id="Path_16374" data-name="Path 16374" d="M422.854,453.267a.428.428,0,0,1-.121-.018l-.029-.008-.049-.014-.154-.047-.092-.029a.427.427,0,0,1,.252-.816c.112.032.222.066.327.1a.427.427,0,0,1-.134.833Z" transform="translate(-422.117 -452.317)" fill="#1034a6"/>
        </g>
        <g id="Group_10946" data-name="Group 10946" transform="translate(0 2.322)">
          <path id="Path_16375" data-name="Path 16375" d="M256.7,489.154c-3.246,0-6.7-.964-6.7-2.75v-2.323a.427.427,0,1,1,.854,0c0,.791,2.222,1.9,5.842,1.9a16.013,16.013,0,0,0,1.659-.084.427.427,0,0,1,.089.85,16.878,16.878,0,0,1-1.748.089c-2.259,0-4.617-.467-5.842-1.352v.925c0,.791,2.222,1.9,5.842,1.9l.253,0,.111,0h.008l.1,0,.2-.007.159-.007.037,0,.187-.011h.012l.161-.011h.012l.136-.011h.01l.123-.011.151-.015a.427.427,0,0,1,.091.85l-.161.016-.132.012h-.008l-.142.011h-.01l-.175.012h-.01l-.2.012H257.6l-.039,0-.161.007-.212.007-.108,0-.118,0Z" transform="translate(-250 -483.655)" fill="#1034a6"/>
        </g>
        <g id="Group_10947" data-name="Group 10947" transform="translate(12.032 2.322)">
          <path id="Path_16376" data-name="Path 16376" d="M456,485.486l-.045,0c-.175-.018-.35-.04-.52-.063a.427.427,0,0,1-.22-.747.882.882,0,0,0,.358-.591.427.427,0,0,1,.427-.427h0a.427.427,0,0,1,.422.361.433.433,0,0,1,.005.066v.977a.427.427,0,0,1-.427.427Z" transform="translate(-455.07 -483.655)" fill="#1034a6"/>
        </g>
        <g id="Group_10948" data-name="Group 10948" transform="translate(0 4.645)">
          <path id="Path_16377" data-name="Path 16377" d="M256.7,528.74c-3.246,0-6.7-.964-6.7-2.75v-2.323a.427.427,0,1,1,.854,0c0,.791,2.222,1.9,5.842,1.9l.253,0,.111,0h.008l.1,0,.2-.007.159-.007.037,0,.187-.011h.012l.161-.011h.012l.136-.011h.01l.123-.011.151-.015a.427.427,0,0,1,.091.85l-.161.016-.132.012h-.007l-.142.011h-.01l-.175.012h-.01l-.2.012H257.6l-.039,0-.161.007-.212.007-.108,0-.118,0-.266,0c-2.259,0-4.617-.467-5.842-1.352v.925c0,.791,2.222,1.9,5.842,1.9l.3,0,.323-.009.265-.012.17-.01.12-.008.054,0c.1-.007.2-.016.293-.025l.29-.03.2-.025.2-.027h.007l.037-.006.094-.014a.427.427,0,1,1,.128.845l-.089.013-.057.008-.21.029-.216.027-.305.032c-.1.01-.207.019-.313.027l-.053,0-.126.009-.179.011-.278.013q-.169.006-.339.009T256.7,528.74Z" transform="translate(-250 -523.24)" fill="#1034a6"/>
        </g>
        <g id="Group_10949" data-name="Group 10949" transform="translate(0 6.968)">
          <path id="Path_16378" data-name="Path 16378" d="M256.7,568.325c-3.246,0-6.7-.964-6.7-2.75v-2.323a.427.427,0,0,1,.854,0c0,.792,2.222,1.9,5.842,1.9l.3,0q.163,0,.323-.009l.265-.012.17-.01.117-.008.057,0c.1-.007.2-.016.293-.025l.29-.03.2-.025.2-.027h.008l.037-.006.094-.014.13-.021c.095-.015.183-.031.271-.047h0l.113-.022h.006l.131-.027.077-.016.052-.011.123-.028.089-.021.018,0h0l.125-.032.006,0,.077-.021.01,0,.014,0,.127-.036.088-.026.154-.048.1-.032.009,0c.072-.024.143-.05.2-.072l.041-.016.012,0,.019-.007.008,0,.06-.024.007,0,.066-.027.01,0,.062-.026.075-.033.065-.029.065-.031a4.055,4.055,0,0,0,.362-.195l.049-.031.007,0,.064-.041.005,0,.051-.035.01-.008.036-.026c.032-.024.059-.045.086-.067l.036-.031.011-.01.045-.041.009-.008.028-.027.007-.007.017-.017.013-.013h0l.012-.013.018-.02.01-.012h0l.012-.014.014-.017.011-.015.018-.023,0,0,.016-.023.023-.035,0,0,.016-.029v0l.006-.01,0-.008a.594.594,0,0,0,.036-.083l0-.007v0l0-.005,0-.016,0-.006c0-.01,0-.019.007-.029s0-.017,0-.026v-.043c0-.008,0-.016,0-.024a.427.427,0,0,1,.854,0v2.323a1.364,1.364,0,0,1-.008.144v.011l0,.021a1.231,1.231,0,0,1-.036.175l-.009.032,0,.006a1.5,1.5,0,0,1-.084.214c-.017.034-.035.067-.056.1l-.026.042-.019.03,0,.006c-.016.025-.034.05-.052.075s-.052.069-.079.1l-.018.021-.006.006-.039.044-.006.006-.005.005-.021.023-.041.042-.056.055c-.023.022-.051.047-.08.073l-.01.008-.016.013-.025.021-.011.009-.073.057-.069.052c-.04.029-.084.06-.131.091l-.08.052-.091.055-.09.052c-.045.026-.093.051-.141.076l-.049.025c-.14.071-.3.142-.461.209l-.048.02-.111.043-.056.022c-.225.083-.466.161-.718.23l-.121.033c-.18.047-.363.09-.546.129l-.2.041-.016,0h0l-.09.017-.171.031c-.311.054-.633.1-.956.132l-.141.014c-.151.015-.294.026-.432.036l-.1.006-.238.013-.094,0c-.15.007-.3.011-.453.014H256.7Zm-5.842-3.675v.925c0,.791,2.222,1.9,5.842,1.9h.295c.14,0,.284-.007.425-.013l.094,0,.225-.013h.006l.074-.005h.008c.131-.009.266-.02.413-.034l.128-.013c.307-.032.61-.074.9-.124l.16-.029.083-.016.008,0h0l.193-.039c.168-.036.338-.076.5-.119l.108-.03c.232-.064.45-.134.651-.208l.042-.016.01,0,.095-.036.045-.018c.143-.058.277-.119.4-.18l.041-.021.114-.062.071-.041.082-.05.054-.035c.04-.026.074-.05.108-.075l.044-.033.054-.043.016-.013.029-.024.052-.047.038-.037.023-.023.013-.013h0l.012-.013.024-.027.005-.006.008-.01c.015-.018.03-.036.044-.057l.026-.037.015-.023.011-.017c.01-.017.019-.034.028-.051a.607.607,0,0,0,.034-.087l0-.014,0-.007a.366.366,0,0,0,.011-.054v-.006l0-.013c0-.017,0-.033,0-.048v-.925l-.024.017-.077.053-.005,0-.08.052-.076.048a4.8,4.8,0,0,1-.43.232l-.079.037-.08.036-.081.035-.084.035-.078.032-.073.029-.038.014h0l-.055.021c-.069.025-.147.053-.23.081l-.117.038-.171.053-.094.028-.144.04-.008,0-.01,0-.091.024-.141.036-.016,0h0l-.106.026-.131.03-.054.012-.081.017-.145.03-.122.024h-.007c-.1.018-.19.035-.286.05l-.144.023-.089.013-.057.008-.209.029-.217.027q-.151.017-.305.032c-.1.01-.207.019-.312.027l-.057,0-.123.008-.18.011-.278.013q-.169.006-.339.009t-.318,0C254.437,566,252.08,565.535,250.854,564.65ZM262.345,566h0l0-.006Zm.133-2.513,0,.006Zm0,0h0Zm.025-.051h0Zm0,0h0Zm.013-.051v0Z" transform="translate(-250 -562.825)" fill="#1034a6"/>
        </g>
        <g id="Group_10950" data-name="Group 10950" transform="translate(0 9.29)">
          <path id="Path_16379" data-name="Path 16379" d="M256.7,607.909c-3.246,0-6.7-.964-6.7-2.75v-2.322a.427.427,0,1,1,.854,0c0,.791,2.222,1.9,5.842,1.9h.295c.14,0,.284-.007.425-.013l.094,0,.225-.013h.006l.074,0h.008c.131-.009.266-.02.413-.034l.128-.013c.307-.032.61-.074.9-.124l.16-.029.083-.016.008,0h0l.193-.039c.168-.036.338-.076.5-.12l.108-.03c.232-.064.45-.134.651-.208l.042-.016.01,0,.095-.037.045-.018c.143-.058.277-.119.4-.18l.041-.021.114-.062.071-.041.082-.049.054-.035c.04-.026.074-.05.108-.075l.044-.033.054-.043.016-.013.029-.024.052-.047.038-.037.023-.023.013-.013h0l.012-.013.024-.027.005-.006.008-.01c.015-.018.03-.036.044-.057l.026-.037.015-.023.011-.017c.011-.019.02-.035.028-.051a.6.6,0,0,0,.034-.087l0-.014,0-.007a.367.367,0,0,0,.011-.054V602.9l0-.013c0-.017,0-.033,0-.048a.427.427,0,1,1,.854,0v2.322C263.392,606.946,259.942,607.909,256.7,607.909Zm-5.842-3.675v.925c0,.791,2.222,1.9,5.842,1.9s5.842-1.1,5.842-1.9v-.925c-.039.029-.084.06-.13.09l-.08.052-.091.055-.09.052c-.045.026-.093.051-.141.076l-.049.025c-.14.071-.3.142-.461.209l-.048.02-.111.043-.056.021c-.225.083-.466.161-.718.23l-.121.033c-.18.047-.363.09-.546.129l-.2.041-.016,0h0l-.09.017-.171.031c-.311.053-.633.1-.956.132l-.141.014c-.151.015-.294.026-.432.036l-.1.007-.238.013-.094,0c-.15.007-.3.011-.453.014H256.7C254.437,605.587,252.08,605.12,250.854,604.234Zm11.49-.967h0l0-.006Z" transform="translate(-250 -602.41)" fill="#1034a6"/>
        </g>
        <g id="Group_10959" data-name="Group 10959">
          <g id="Group_10951" data-name="Group 10951" transform="translate(7.972 0.087)">
            <path id="Path_16380" data-name="Path 16380" d="M386.3,450.875a.427.427,0,0,1-.044-.852c.235-.024.469-.055.7-.09a6.7,6.7,0,0,0,3.129-1.129.882.882,0,0,0,.358-.592c0-.455-.7-.965-1.821-1.333h0l-.028-.008-.05-.015-.154-.047-.086-.027a12.026,12.026,0,0,0-2.041-.38.427.427,0,1,1,.088-.85,12.848,12.848,0,0,1,2.2.41h0l.02.006h0l.066.021.011,0,.141.043.067.019.03.009c1.558.508,2.417,1.271,2.417,2.148a1.629,1.629,0,0,1-.654,1.239,7.4,7.4,0,0,1-3.556,1.326c-.241.037-.489.07-.738.1Z" transform="translate(-385.875 -445.549)" fill="#1034a6"/>
          </g>
          <g id="Group_10952" data-name="Group 10952">
            <path id="Path_16381" data-name="Path 16381" d="M256.7,449.57c-3.246,0-6.7-.964-6.7-2.75s3.45-2.75,6.7-2.75a16.861,16.861,0,0,1,1.748.089.427.427,0,1,1-.089.85,16.021,16.021,0,0,0-1.659-.084c-3.619,0-5.842,1.1-5.842,1.9s2.222,1.9,5.842,1.9a16,16,0,0,0,1.659-.084.427.427,0,0,1,.089.85A16.878,16.878,0,0,1,256.7,449.57Z" transform="translate(-250 -444.071)" fill="#1034a6"/>
          </g>
          <g id="Group_10953" data-name="Group 10953" transform="translate(10.098 0.484)">
            <path id="Path_16382" data-name="Path 16382" d="M422.854,453.267a.428.428,0,0,1-.121-.018l-.029-.008-.049-.014-.154-.047-.092-.029a.427.427,0,0,1,.252-.816c.112.032.222.066.327.1a.427.427,0,0,1-.134.833Z" transform="translate(-422.117 -452.317)" fill="#1034a6"/>
          </g>
          <g id="Group_10954" data-name="Group 10954" transform="translate(7.972 3.238)">
            <path id="Path_16383" data-name="Path 16383" d="M386.3,503.753a.427.427,0,0,1-.045-.852c.138-.015.258-.029.366-.043l.133-.018h.007l.188-.027.134-.022.133-.023c.221-.039.435-.083.64-.132l.117-.028.121-.031.007,0,.1-.026.125-.035.01,0,.1-.031.109-.034.01,0,.1-.032.1-.035.007,0,.1-.035.007,0,.092-.035.093-.037.006,0,.107-.044.021-.009.049-.022.008,0,.085-.039.061-.029c.08-.039.16-.08.235-.123l.033-.019.007,0c.037-.021.073-.043.107-.064l.023-.015.008-.005.03-.019.007,0,.029-.02.047-.033.051-.038.039-.03.008-.007.024-.019.005,0,.032-.027c.021-.018.039-.034.056-.051l.038-.036.006-.005.018-.018.012-.012-.008.01.017-.019.033-.037.035-.043,0-.005.021-.028,0-.006,0,0,.023-.034,0,0v0l.015-.025,0-.008a.622.622,0,0,0,.045-.1l0-.011.005-.017c0-.008,0-.017.007-.025a.363.363,0,0,0,.009-.045l0-.017c0-.017,0-.033,0-.048v-.925a7.99,7.99,0,0,1-3.356,1.168c-.241.038-.489.07-.738.1a.427.427,0,1,1-.089-.85c.235-.025.469-.055.7-.09a6.7,6.7,0,0,0,3.129-1.129.427.427,0,0,1,.338-.1c.161.022.326.043.492.06a.427.427,0,0,1,.383.425v1.346a1.348,1.348,0,0,1-.008.144s0,.007,0,.011l0,.022a1.228,1.228,0,0,1-.026.138c0,.02-.011.043-.018.067s-.007.024-.009.031l-.007.02,0,.008a1.483,1.483,0,0,1-.111.245l0,.009-.033.055-.01.016-.035.053-.024.034c-.014.019-.028.038-.043.057l-.052.064,0,0c-.018.021-.037.042-.056.063l-.024.025-.046.047-.052.05c-.024.023-.053.05-.084.076l-.061.051-.031.025-.063.049-.068.05-.065.045-.014.009-.03.02-.041.027-.025.016-.009.006c-.045.028-.091.056-.138.083l-.048.028c-.089.05-.186.1-.285.148l-.069.033-.1.045-.065.029-.018.008-.128.053-.114.045-.114.043-.108.039-.12.041-.107.035-.007,0-.124.039-.12.036c-.048.014-.1.028-.146.041l-.106.028-.137.035-.124.03c-.22.052-.452.1-.687.141l-.14.024-.146.024-.2.029-.147.02c-.114.015-.241.03-.387.046Zm3.9-2.183h0Zm.125-.153h0Zm.033-.051h0Zm0,0h0Zm0,0h0Zm.047-.093h0Zm0,0h0Zm0,0h0Zm0,0h0Z" transform="translate(-385.875 -499.255)" fill="#1034a6"/>
          </g>
          <g id="Group_10955" data-name="Group 10955" transform="translate(0 2.322)">
            <path id="Path_16384" data-name="Path 16384" d="M256.7,489.154c-3.246,0-6.7-.964-6.7-2.75v-2.323a.427.427,0,1,1,.854,0c0,.791,2.222,1.9,5.842,1.9a16.013,16.013,0,0,0,1.659-.084.427.427,0,0,1,.089.85,16.878,16.878,0,0,1-1.748.089c-2.259,0-4.617-.467-5.842-1.352v.925c0,.791,2.222,1.9,5.842,1.9l.253,0,.111,0h.008l.1,0,.2-.007.159-.007.037,0,.187-.011h.012l.161-.011h.012l.136-.011h.01l.123-.011.151-.015a.427.427,0,0,1,.091.85l-.161.016-.132.012h-.008l-.142.011h-.01l-.175.012h-.01l-.2.012H257.6l-.039,0-.161.007-.212.007-.108,0-.118,0Z" transform="translate(-250 -483.655)" fill="#1034a6"/>
          </g>
          <g id="Group_10956" data-name="Group 10956" transform="translate(12.032 2.322)">
            <path id="Path_16385" data-name="Path 16385" d="M456,485.486l-.045,0c-.175-.018-.35-.04-.52-.063a.427.427,0,0,1-.22-.747.882.882,0,0,0,.358-.591.427.427,0,0,1,.427-.427h0a.427.427,0,0,1,.422.361.433.433,0,0,1,.005.066v.977a.427.427,0,0,1-.427.427Z" transform="translate(-455.07 -483.655)" fill="#1034a6"/>
          </g>
          <g id="Group_10957" data-name="Group 10957" transform="translate(7.972 4.645)">
            <path id="Path_16386" data-name="Path 16386" d="M387.02,528.56a.427.427,0,0,1-.063-.85l.13-.021c.095-.015.183-.031.27-.047l.117-.023.136-.028.075-.016.053-.011.123-.028.05-.012.042-.01.014,0h0l.125-.032.006,0,.077-.021.013,0,.01,0,.128-.036.088-.026.154-.048.1-.033.009,0c.065-.021.129-.044.2-.072l.041-.016.012,0,.019-.007.009,0,.06-.023.007,0,.067-.027.009,0,.061-.025.077-.034.064-.029.066-.031a4,4,0,0,0,.361-.194l.051-.032.069-.045.007,0,.049-.034.01-.007.034-.025.006,0c.029-.021.056-.043.082-.064l.036-.03.012-.01.044-.04.009-.009.028-.027.006-.006.017-.018.013-.014h0l.012-.013.019-.021.01-.011.005-.006.025-.031.006-.008.017-.022,0,0,.015-.021.023-.036,0-.006.016-.028v0l.005-.01,0-.009a.611.611,0,0,0,.036-.083l0-.008,0-.007,0-.016,0-.006c0-.009,0-.019.007-.028s0-.018,0-.027v-.043c0-.008,0-.016,0-.024v-.925l-.018.013-.006,0-.065.045-.014.009-.03.02-.041.027-.025.016-.009.006c-.045.028-.091.056-.138.083l-.048.028c-.089.05-.186.1-.285.148l-.069.033-.1.045-.065.029-.018.008-.128.053-.114.045-.114.043-.108.039-.12.041-.115.038-.122.038-.12.035c-.048.014-.1.028-.146.041l-.106.028-.137.035-.124.03c-.22.052-.451.1-.687.141l-.14.024-.146.024-.2.029-.147.02c-.114.015-.241.03-.387.046a.427.427,0,0,1-.09-.85c.138-.014.258-.029.366-.043l.133-.018h.007l.188-.028.134-.022.133-.023c.221-.039.435-.083.64-.132l.117-.028.121-.031.007,0,.1-.026.125-.035.01,0,.1-.031.109-.034.01,0,.1-.032.1-.035.007,0,.1-.035.007,0,.092-.035.093-.037.006,0,.107-.044.021-.009.049-.022.008,0,.085-.039.061-.029c.08-.039.16-.08.235-.123l.033-.019.007,0c.037-.021.073-.043.107-.064l.023-.015.008-.005.03-.019.007,0,.029-.02.047-.033,0,0,.044-.032.009-.007.036-.028.009-.007.024-.019.005,0,.032-.027c.021-.018.039-.034.056-.051l.038-.036.006-.005.018-.018.012-.012-.009.01.018-.02.035-.04.028-.035.009-.011.016-.021.01-.014.006-.009.014-.021.008-.013v0l.012-.021.007-.012a.627.627,0,0,0,.046-.1l0-.011.005-.017c0-.008,0-.017.007-.025a.372.372,0,0,0,.009-.045l0-.017c0-.017,0-.033,0-.048a.427.427,0,1,1,.854,0v2.323q0,.036,0,.071c0,.014,0,.028,0,.042v.008c0,.006,0,.011,0,.016s0,.011,0,.017v.01l0,.017c0,.028-.009.056-.014.084s-.012.056-.02.085l-.009.03c0,.011-.006.02-.009.028l-.012.035a1.463,1.463,0,0,1-.081.189l-.02.037-.017.03c-.01.018-.021.037-.033.055s-.03.047-.047.071l-.01.015-.013.018,0,0-.036.048-.04.049-.02.024-.045.051,0,0-.005.006-.022.023-.045.047-.053.051c-.026.025-.053.049-.08.073l-.014.012-.044.037c-.039.031-.076.061-.115.09l-.053.039-.076.053-.006,0-.083.054-.073.046a4.837,4.837,0,0,1-.43.232l-.079.037-.079.036-.081.035-.084.035-.078.032-.073.029-.038.014h0l-.056.021c-.073.027-.149.054-.229.081l-.118.039-.17.053-.095.028-.143.04-.006,0-.012,0-.091.024-.14.036-.015,0-.008,0-.038.009-.063.015-.13.03-.055.012-.08.017-.148.03-.121.024-.009,0c-.093.017-.187.034-.283.05l-.144.023A.432.432,0,0,1,387.02,528.56Zm3.228-2.14h0Zm0-.006,0,.006Zm.128-.184-.008.011Zm.025-.044h0Zm0,0h0Zm.012-.051v0h0Zm-.057-2.191h0Zm0,0h0Zm0,0h0Zm.047-.093h0Zm0,0h0Zm0,0h0Zm0,0h0Z" transform="translate(-385.876 -523.24)" fill="#1034a6"/>
          </g>
          <g id="Group_10958" data-name="Group 10958" transform="translate(0 4.645)">
            <path id="Path_16387" data-name="Path 16387" d="M256.7,528.74c-3.246,0-6.7-.964-6.7-2.75v-2.323a.427.427,0,1,1,.854,0c0,.791,2.222,1.9,5.842,1.9l.253,0,.111,0h.008l.1,0,.2-.007.159-.007.037,0,.187-.011h.012l.161-.011h.012l.136-.011h.01l.123-.011.151-.015a.427.427,0,0,1,.091.85l-.161.016-.132.012h-.007l-.142.011h-.01l-.175.012h-.01l-.2.012H257.6l-.039,0-.161.007-.212.007-.108,0-.118,0-.266,0c-2.259,0-4.617-.467-5.842-1.352v.925c0,.791,2.222,1.9,5.842,1.9l.3,0,.323-.009.265-.012.17-.01.12-.008.054,0c.1-.007.2-.016.293-.025l.29-.03.2-.025.2-.027h.007l.037-.006.094-.014a.427.427,0,1,1,.128.845l-.089.013-.057.008-.21.029-.216.027-.305.032c-.1.01-.207.019-.313.027l-.053,0-.126.009-.179.011-.278.013q-.169.006-.339.009T256.7,528.74Z" transform="translate(-250 -523.24)" fill="#1034a6"/>
          </g>
        </g>
      </g>
      <g id="Group_10965" data-name="Group 10965" transform="translate(15.944 4.645)">
        <g id="Group_10961" data-name="Group 10961">
          <path id="Path_16388" data-name="Path 16388" d="M528.438,528.74a16.241,16.241,0,0,1-2.485-.185,7.435,7.435,0,0,1-3.544-1.315l-.014-.012a1.631,1.631,0,0,1-.653-1.239c0-.876.859-1.638,2.418-2.148l.034-.01.056-.017.006,0,.071-.021.132-.042.04-.013a12.9,12.9,0,0,1,2.192-.409,16.826,16.826,0,0,1,1.747-.089c3.246,0,6.7.964,6.7,2.75S531.684,528.74,528.438,528.74Zm-5.5-2.167.011.01a6.7,6.7,0,0,0,3.13,1.129,15.388,15.388,0,0,0,2.354.174c3.619,0,5.842-1.1,5.842-1.9s-2.222-1.9-5.842-1.9a15.983,15.983,0,0,0-1.658.085,12.063,12.063,0,0,0-2.038.378h0l-.162.051-.085.026-.076.022-.01,0c-1.118.368-1.812.878-1.812,1.331A.87.87,0,0,0,522.943,526.572Zm1.774-2.008h0Zm.126-.056h0Zm0,0h0Zm0,0h0Zm-.546-.261h0Z" transform="translate(-521.742 -523.24)" fill="#1034a6"/>
        </g>
        <g id="Group_10962" data-name="Group 10962" transform="translate(2.129 0.484)">
          <path id="Path_16389" data-name="Path 16389" d="M558.453,532.445a.427.427,0,0,1-.136-.832c.1-.033.2-.065.328-.1a.427.427,0,0,1,.248.817l-.155.049-.089.027-.081.024A.428.428,0,0,1,558.453,532.445Z" transform="translate(-558.026 -531.496)" fill="#1034a6"/>
        </g>
        <g id="Group_10963" data-name="Group 10963" transform="translate(0 2.323)">
          <path id="Path_16390" data-name="Path 16390" d="M528.438,568.325h-.3l-.2,0-.106,0-.149-.006-.093,0-.239-.013-.087-.006-.148-.011-.125-.01-.04,0-.128-.012-.026,0-.113-.011-.122-.013-.121-.014-.109-.013c-.125-.016-.249-.034-.369-.053l-.118-.019-.115-.019-.065-.011-.2-.036c-.164-.032-.331-.067-.5-.107l-.1-.024a7.959,7.959,0,0,1-1.69-.6l-.043-.022-.005,0c-.083-.044-.166-.09-.246-.137l-.005,0-.006,0-.04-.025-.065-.041c-.048-.031-.1-.065-.145-.1l-.038-.028c-.066-.049-.129-.1-.187-.148a2.535,2.535,0,0,1-.212-.206l-.038-.043,0-.006-.021-.025c-.019-.023-.037-.044-.053-.066s-.036-.048-.053-.073a1.64,1.64,0,0,1-.127-.216l-.018-.037-.021-.048c-.01-.023-.02-.049-.029-.075l0-.006a1.332,1.332,0,0,1-.048-.176c-.005-.024-.01-.052-.014-.079q0-.018,0-.035v-.011c0-.022,0-.044-.005-.066s0-.047,0-.07v-2.323a.427.427,0,0,1,.854,0,.871.871,0,0,0,.346.582l.011.01a6.7,6.7,0,0,0,3.13,1.129,15.38,15.38,0,0,0,2.354.174c3.619,0,5.842-1.1,5.842-1.9a.427.427,0,1,1,.854,0v2.323C535.134,567.361,531.684,568.325,528.438,568.325Zm-1.553-.929h.013l.122.011.019,0,.018,0,.111.009h.007l.143.011.077.005.229.013.084,0h.008l.137.006h.006l.1,0,.189,0h.293c3.619,0,5.842-1.1,5.842-1.9v-.925c-1.225.886-3.583,1.352-5.842,1.352a16.241,16.241,0,0,1-2.485-.185,7.983,7.983,0,0,1-3.356-1.168v.925c0,.007,0,.015,0,.022s0,.009,0,.013v.019l0,.01c0,.009,0,.019.005.028a.516.516,0,0,0,.018.065c0,.009.006.018.01.026l.013.028,0,.007,0,.01a.782.782,0,0,0,.063.106c.011.017.02.029.03.041l.03.037.007.008,0,.005.025.028a1.691,1.691,0,0,0,.141.136c.04.034.086.071.135.107l.007.005.02.015c.037.027.076.052.115.078l.041.026.012.007.034.021,0,0c.066.039.134.077.2.113l.037.019a7.109,7.109,0,0,0,1.507.534l.09.022c.157.037.312.07.464.1l.187.035.044.008h.016l.1.017h.008l.1.016h.006c.113.018.229.035.345.049l.1.012h.007l.112.013.114.013.1.01Zm.01,0h0Zm-4.109-1.4,0,0h0Zm-.185-.36v0Z" transform="translate(-521.742 -562.825)" fill="#1034a6"/>
        </g>
        <g id="Group_10964" data-name="Group 10964" transform="translate(0 4.645)">
          <path id="Path_16391" data-name="Path 16391" d="M528.438,607.909c-3.246,0-6.7-.964-6.7-2.75v-2.322a.427.427,0,1,1,.854,0c0,.007,0,.015,0,.022s0,.009,0,.013v.02l0,.01c0,.009,0,.019.005.028a.512.512,0,0,0,.018.065c0,.009.006.018.01.026l.013.028,0,.007,0,.01a.79.79,0,0,0,.063.106c.011.016.02.028.03.041s.02.025.03.037l.007.008,0,.005.025.028a1.7,1.7,0,0,0,.141.136c.04.035.086.071.135.107l.007.005.02.015c.037.027.076.053.115.078l.041.026.012.007.034.021,0,0c.066.039.134.077.2.113l.037.019a7.108,7.108,0,0,0,1.507.534l.09.022c.157.037.312.07.464.1l.187.035.044.008h.007l.009,0,.1.017h.008l.1.016h.006c.113.018.229.034.345.049l.1.012h.007l.112.013.114.013.1.01.017,0h.013l.122.011.019,0,.018,0,.111.009h.007l.143.011.077.005.229.013.084,0h.008l.137.006h.006l.1,0,.189,0h.293c3.619,0,5.842-1.1,5.842-1.9a.427.427,0,1,1,.854,0v2.322C535.134,606.946,531.684,607.909,528.438,607.909Zm-5.842-3.675v.925c0,.791,2.222,1.9,5.842,1.9s5.842-1.1,5.842-1.9v-.925c-1.225.886-3.583,1.352-5.842,1.352h-.3l-.2,0-.106,0-.149-.006-.093,0-.239-.013-.087-.006-.148-.011-.125-.01-.041,0-.128-.012-.026,0-.113-.011-.122-.013-.121-.014-.109-.013c-.125-.016-.248-.034-.369-.053l-.118-.019-.115-.019-.065-.011-.2-.036c-.164-.032-.331-.067-.5-.107l-.1-.024a7.952,7.952,0,0,1-1.69-.6l-.043-.022-.005,0c-.083-.044-.166-.09-.246-.137l-.005,0-.006,0-.04-.025-.065-.041c-.048-.031-.1-.065-.145-.1Zm4.3.425h0Zm0,0h0Zm-4.108-1.4,0,0h0Zm-.185-.361v0Z" transform="translate(-521.742 -602.41)" fill="#1034a6"/>
        </g>
      </g>
    </g>
  </g>
</svg>
