<svg xmlns="http://www.w3.org/2000/svg" width="24.046" height="23.262" viewBox="0 0 24.046 23.262">
  <g id="Group_10970" data-name="Group 10970" transform="translate(-2529.751 -357.421)">
    <path id="Path_16392" data-name="Path 16392" d="M2593.671,362.147l-2.468-4.726-.861,1.355a11.312,11.312,0,0,0-14.163,5.858l1.941.9a9.167,9.167,0,0,1,11.041-4.9l-.816,1.285Z" transform="translate(-43.946)" fill="#1034a6"/>
    <path id="Path_16393" data-name="Path 16393" d="M2540.12,543.074a9.106,9.106,0,0,1-6.563-6.836l1.521.064-2.469-4.725-2.859,4.5,1.6.068a11.314,11.314,0,0,0,11.141,9.383q.507,0,1.015-.046l-.193-2.13A9.127,9.127,0,0,1,2540.12,543.074Z" transform="translate(0 -164.844)" fill="#1034a6"/>
    <path id="Path_16394" data-name="Path 16394" d="M2825.821,462.92a11.27,11.27,0,0,0-1.676-3.586l-1.748,1.232a9.167,9.167,0,0,1-1.28,12.009l-.7-1.35-2.858,4.5,5.326.226-.743-1.423A11.238,11.238,0,0,0,2825.821,462.92Z" transform="translate(-272.415 -96.464)" fill="#1034a6"/>
  </g>
</svg>
