<svg xmlns="http://www.w3.org/2000/svg" width="29.744" height="35.906" viewBox="0 0 29.744 35.906">
  <g id="Group_10926" data-name="Group 10926" transform="translate(-2222.18 -2009.226)">
    <g id="Group_10892" data-name="Group 10892" transform="translate(2222.18 2009.226)">
      <path id="Path_16349" data-name="Path 16349" d="M2249.359,2045.132h-24.615a2.567,2.567,0,0,1-2.564-2.564V2011.79a2.567,2.567,0,0,1,2.564-2.564h24.615a2.567,2.567,0,0,1,2.564,2.564v30.778A2.567,2.567,0,0,1,2249.359,2045.132Zm-24.615-34.037a.7.7,0,0,0-.695.695v30.778a.7.7,0,0,0,.695.695h24.615a.7.7,0,0,0,.695-.695V2011.79a.7.7,0,0,0-.695-.695Z" transform="translate(-2222.18 -2009.226)" fill="#1034a6"/>
    </g>
    <g id="Group_10902" data-name="Group 10902" transform="translate(2228.258 2016.168)">
      <g id="Group_10895" data-name="Group 10895" transform="translate(0 0)">
        <g id="Group_10893" data-name="Group 10893">
          <path id="Path_16350" data-name="Path 16350" d="M2644.118,2493.787h-.031a.936.936,0,0,1-.729-.391l-.957-1.34a.935.935,0,0,1,1.521-1.086l.248.347,1.62-1.971a.935.935,0,1,1,1.445,1.187l-2.394,2.914A.933.933,0,0,1,2644.118,2493.787Z" transform="translate(-2642.227 -2489.004)" fill="#1034a6"/>
        </g>
        <g id="Group_10894" data-name="Group 10894" transform="translate(7.087 1.994)">
          <path id="Path_16351" data-name="Path 16351" d="M3141.58,2628.7h-8.632a.935.935,0,0,1,0-1.87h8.632a.935.935,0,0,1,0,1.87Z" transform="translate(-3132.014 -2626.826)" fill="#1034a6"/>
        </g>
      </g>
      <g id="Group_10898" data-name="Group 10898" transform="translate(0 8.619)">
        <g id="Group_10896" data-name="Group 10896">
          <path id="Path_16352" data-name="Path 16352" d="M2644.118,3089.484h-.031a.935.935,0,0,1-.729-.391l-.957-1.34a.935.935,0,1,1,1.521-1.086l.248.347,1.62-1.972a.935.935,0,0,1,1.445,1.187l-2.394,2.914A.934.934,0,0,1,2644.118,3089.484Z" transform="translate(-2642.227 -3084.701)" fill="#1034a6"/>
        </g>
        <g id="Group_10897" data-name="Group 10897" transform="translate(7.087 1.994)">
          <path id="Path_16353" data-name="Path 16353" d="M3141.58,3224.392h-8.632a.935.935,0,0,1,0-1.869h8.632a.935.935,0,0,1,0,1.869Z" transform="translate(-3132.014 -3222.523)" fill="#1034a6"/>
        </g>
      </g>
      <g id="Group_10901" data-name="Group 10901" transform="translate(0 17.239)">
        <g id="Group_10899" data-name="Group 10899">
          <path id="Path_16354" data-name="Path 16354" d="M2644.118,3685.181h-.031a.936.936,0,0,1-.729-.391l-.957-1.34a.935.935,0,1,1,1.521-1.087l.248.347,1.62-1.971a.935.935,0,1,1,1.445,1.187l-2.394,2.914A.933.933,0,0,1,2644.118,3685.181Z" transform="translate(-2642.227 -3680.398)" fill="#1034a6"/>
        </g>
        <g id="Group_10900" data-name="Group 10900" transform="translate(7.087 1.994)">
          <path id="Path_16355" data-name="Path 16355" d="M3141.58,3820.089h-8.632a.935.935,0,0,1,0-1.869h8.632a.935.935,0,0,1,0,1.869Z" transform="translate(-3132.014 -3818.22)" fill="#1034a6"/>
        </g>
      </g>
    </g>
  </g>
</svg>
